<?xml version="1.0" encoding="utf-8"?>
<!-- Generator: Adobe Illustrator 21.0.0, SVG Export Plug-In . SVG Version: 6.00 Build 0)  -->
<svg version="1.1" id="Admin_1_" xmlns="http://www.w3.org/2000/svg" xmlns:xlink="http://www.w3.org/1999/xlink" x="0px" y="0px"
	 viewBox="0 0 64 64" style="enable-background:new 0 0 64 64;" xml:space="preserve">
<style type="text/css">
	.st0{fill:#37474E;}
</style>
<path id="Key" class="st0" d="M47.7,34c-2.3-2.3-5.8-2.4-7.8-0.4c-1.5,1.5-1.8,3.9-0.9,5.9l-8.4,8.4l0.1,3l3,0.1l0-0.9l0.9,0l0-0.9
	l0.9,0l0-0.9l0.9,0l0-0.9l0.9,0l0-0.9l0.9,0l0-0.9l0.9,0l0-0.9l0.9,0l2.6-2.6c2,0.9,4.4,0.6,5.9-0.9C50.1,39.8,50,36.3,47.7,34z
	 M44.8,36.9c-0.4-0.4-0.4-1-0.1-1.3s0.9-0.3,1.3,0.1c0.4,0.4,0.4,1,0.1,1.3S45.2,37.3,44.8,36.9z"/>
<path id="Settings" class="st0" d="M23.8,36.8l1.3-0.4v-1.2l-1.3-0.4l-0.2-0.5l-0.2-0.5l0.6-1.2L23,31.6l-1.2,0.6L21.3,32l-0.5-0.2
	l-0.4-1.3h-1.2l-0.4,1.3L18.2,32l-0.5,0.2l-1.2-0.6l-0.9,0.9l0.6,1.2L16,34.2l-0.2,0.5l-1.3,0.4v1.2l1.3,0.4l0.2,0.5l0.2,0.5
	l-0.6,1.2l0.9,0.9l1.2-0.6l0.5,0.2l0.5,0.2l0.4,1.3h1.2l0.4-1.3l0.5-0.2l0.5-0.2l1.2,0.6l0.9-0.9l-0.6-1.2l0.2-0.5L23.8,36.8z
	 M19.8,37.2c-0.8,0-1.4-0.6-1.4-1.4s0.6-1.4,1.4-1.4s1.4,0.6,1.4,1.4S20.5,37.2,19.8,37.2z"/>
<g id="Person">
	<path class="st0" d="M39.2,45.8l0,0.9l-0.9,0l0,0.9l-0.9,0l0,0.9l-0.9,0l0,0.3c2.4-0.4,4.5-1.1,5.6-1.9v-3.1l-2.2,2.2L39.2,45.8z"
		/>
	<path class="st0" d="M38.4,39.1c-0.9-2-0.6-4.4,0.9-5.9c0.3-0.3,0.6-0.5,1-0.7c-1.7-2-4.4-3.6-7.2-3.6h-3.3h-3.3
		c-2.2,0-4.2,0.9-5.8,2.2l0.1,0.4l0.6,0.3l0.6,0.2l1.3-0.7l0.9,0.9l-0.7,1.3l0.2,0.6l0.3,0.6l1.4,0.5v1.3l-1.4,0.5l-0.3,0.6
		l-0.2,0.6l0.7,1.3l-0.9,0.9l-1.3-0.7l-0.6,0.2l-0.6,0.3l-0.5,1.4h-1.3l-0.5-1.4L18,39.9l-0.6-0.2l-0.2,0.1v7
		c2.1,1.5,7.8,2.5,12.5,2.5c0.1,0,0.2,0,0.3,0L30,47.4L38.4,39.1z"/>
	<circle class="st0" cx="29.8" cy="20.5" r="7.7"/>
</g>
</svg>
