<?xml version="1.0" encoding="utf-8"?>
<!-- Generator: Adobe Illustrator 21.0.0, SVG Export Plug-In . SVG Version: 6.00 Build 0)  -->
<svg version="1.1" id="Ebene_1" xmlns="http://www.w3.org/2000/svg" xmlns:xlink="http://www.w3.org/1999/xlink" x="0px" y="0px"
	 viewBox="0 0 64 64" style="enable-background:new 0 0 64 64;" xml:space="preserve">
<style type="text/css">
	.st0{fill:#37474E;}
	.st1{fill:none;stroke:#37474E;stroke-width:3;stroke-linecap:round;stroke-miterlimit:10;}
</style>
<g id="Ebene_1_2_">
	<g id="Ebene_1_1_">
		
			<image style="display:none;overflow:visible;enable-background:new    ;" width="77" height="65" xlink:href="5FE3D9D3268D65.png"  transform="matrix(0.6224 0 0 0.7488 8.0261 7.6639)">
		</image>
		<polygon class="st0" points="16.1,23.4 28.5,8.5 31.6,8.3 31.8,55.7 28.8,55.8 16.1,40.6 8.8,40.5 8,39.4 8,24.3 9.1,23.2 		"/>
		<path class="st1" d="M35,38.7c0,0,3.7-2,3.7-6.7c0-4-3.7-6.7-3.7-6.7"/>
		<path class="st1" d="M39.9,18.3c0,0,6.7,5.6,6.7,13.7c0,4-1.6,8.3-6.6,13.6"/>
		<path class="st1" d="M44.2,52.2C43,53,67.1,35.3,43.7,12.1"/>
	</g>
</g>
</svg>
