<?xml version="1.0" encoding="utf-8"?>
<!-- Generator: Adobe Illustrator 21.0.0, SVG Export Plug-In . SVG Version: 6.00 Build 0)  -->
<svg version="1.1" id="Ebene_2" xmlns="http://www.w3.org/2000/svg" xmlns:xlink="http://www.w3.org/1999/xlink" x="0px" y="0px"
	 viewBox="0 0 64 64" style="enable-background:new 0 0 64 64;" xml:space="preserve">
<style type="text/css">
	.st0{fill:#37474E;}
</style>
<g id="RightStripe">
	<path class="st0" d="M32.6,41.9L32.6,41.9c1.2,0.2,2.4-0.6,2.6-1.8c0.1-0.6,0-1.2-0.4-1.7c-0.3-0.5-0.9-0.8-1.4-0.9
		c-0.1,0-0.2,0-0.4,0c-0.4,0-0.8,0.1-1.2,0.3c-0.6,0.3-0.9,0.9-1,1.5c-0.1,0.6,0,1.2,0.4,1.7C31.5,41.5,32,41.8,32.6,41.9z"/>
	<path class="st0" d="M50.2,14.4h-5.7v1.3c0,1.4-1.1,2.5-2.5,2.5h-1.3l-4.9,8.5l4.7-3.9l0.4,0.5c0.9,1.1,0.8,2.7-0.3,3.6l-7.7,6.5
		l-0.3,1.9c0.4-0.1,0.9-0.1,1.3,0c1.2,0.2,2.2,0.9,2.9,1.8c0.7,1,0.9,2.2,0.7,3.3c-0.4,2.2-2.3,3.7-4.4,3.7c-0.3,0-0.5,0-0.8-0.1
		c-1.2-0.2-2.2-0.9-2.9-1.8c-0.7-0.9-0.9-2.1-0.7-3.2l-5.4,9.3h18.8c1.4,0,2.5,1.1,2.5,2.5v1.3h5.7c2.1,0,3.8-1.7,3.8-3.8V18.2
		C54,16.1,52.3,14.4,50.2,14.4z M51.5,49.6h-3.8v-2.5h3.8V49.6z M51.5,45.8h-3.8v-2.5h3.8V45.8z M51.5,42.1h-3.8v-2.5h3.8V42.1z
		 M51.5,38.3h-3.8v-2.5h3.8V38.3z M51.5,34.5h-3.8V32h3.8V34.5z M51.5,30.7h-3.8v-2.5h3.8V30.7z M51.5,27h-3.8v-2.5h3.8V27z
		 M51.5,23.2h-3.8v-2.5h3.8V23.2z M51.5,19.4h-3.8v-2.5h3.8V19.4z"/>
</g>
<path id="Scissors" class="st0" d="M36.8,40.4c0.4-2.1-1-4.1-3.1-4.4c-0.7-0.1-1.4,0-2,0.2l0.6-3.1l7.9-6.6c0.8-0.7,0.9-1.9,0.2-2.7
	l-7.6,6.4l1.7-9.5c-1-0.2-2,0.5-2.2,1.6L30.5,32l-2.3,1.9c-0.1-0.6-0.4-1.3-0.8-1.8c-1.4-1.6-3.8-1.8-5.4-0.5
	c-1.6,1.4-1.8,3.8-0.5,5.4c1.4,1.6,3.8,1.8,5.4,0.5l3-2.6L29.3,39c-0.4,2.1,1,4.1,3.1,4.4C34.4,43.8,36.4,42.4,36.8,40.4z
	 M26.3,36.7c-1.2,1-3,0.9-4-0.3c-1-1.2-0.9-3,0.4-4c1.2-1,3-0.9,4,0.3c0.5,0.6,0.7,1.3,0.7,1.9C27.3,35.4,27,36.2,26.3,36.7z
	 M31.1,33.1c-0.3-0.2-0.5-0.6-0.3-1c0.2-0.3,0.6-0.5,1-0.3c0.3,0.2,0.5,0.6,0.3,1C31.8,33.2,31.4,33.3,31.1,33.1z M32.5,42.5
	c-1.6-0.3-2.6-1.8-2.3-3.3c0.1-0.8,0.6-1.5,1.3-1.9c0.6-0.4,1.3-0.5,2-0.4c1.6,0.3,2.6,1.8,2.3,3.3C35.6,41.7,34.1,42.8,32.5,42.5z"
	/>
<g id="LeftStripe">
	<path class="st0" d="M40.7,15.7H21.9c-1.4,0-2.5-1.1-2.5-2.5v-1.3h-5.7c-2.1,0-3.8,1.7-3.8,3.8v30.2c0,2.1,1.7,3.8,3.8,3.8h5.7
		v-1.3c0-1.4,1.1-2.5,2.5-2.5h1.3l5-8.7L27.3,38c-0.9,0.8-2.1,1.1-3.3,1c-1.2-0.1-2.3-0.7-3-1.6c-1.6-1.9-1.3-4.7,0.6-6.3
		c0.9-0.8,2.1-1.1,3.3-1c1.2,0.1,2.3,0.7,3,1.6c0.3,0.3,0.5,0.7,0.7,1.1l1.4-1.1l1.7-9.7c0.2-1.4,1.6-2.3,2.9-2.1l0.6,0.1l-1.3,7.5
		L40.7,15.7z M16.3,47.1h-3.8v-2.5h3.8V47.1z M16.3,43.3h-3.8v-2.5h3.8V43.3z M16.3,39.5h-3.8V37h3.8V39.5z M16.3,35.8h-3.8v-2.5
		h3.8V35.8z M16.3,32h-3.8v-2.5h3.8V32z M16.3,28.2h-3.8v-2.5h3.8V28.2z M16.3,24.5h-3.8v-2.5h3.8V24.5z M16.3,20.7h-3.8v-2.5h3.8
		V20.7z M16.3,16.9h-3.8v-2.5h3.8V16.9z"/>
	<path class="st0" d="M24.5,32.3c-0.5,0-1,0.2-1.4,0.5C22.1,33.6,22,35,22.8,36c0.4,0.5,0.9,0.7,1.5,0.8c0.6,0,1.2-0.1,1.6-0.5
		c0.5-0.4,0.8-1,0.8-1.6c0-0.6-0.2-1.1-0.5-1.5c-0.4-0.5-0.9-0.7-1.5-0.8C24.6,32.3,24.6,32.3,24.5,32.3z"/>
</g>
</svg>
