<?xml version="1.0" encoding="utf-8"?>
<!-- Generator: Adobe Illustrator 21.0.0, SVG Export Plug-In . SVG Version: 6.00 Build 0)  -->
<svg version="1.1" xmlns="http://www.w3.org/2000/svg" xmlns:xlink="http://www.w3.org/1999/xlink" x="0px" y="0px"
	 viewBox="0 0 64 64" style="enable-background:new 0 0 64 64;" xml:space="preserve">
<style type="text/css">
	.st0{fill:#37474E;}
</style>
<g id="PersonL">
	<g>
		<path class="st0" d="M28.5,32.8c-2.5-1.2-4.3-3.6-4.5-6.5c-0.3,0-0.6-0.1-1-0.1h-3.1h-3.1C12,26.2,7.9,31.1,8,34v9.3
			c1.9,1.4,7,2.3,11.4,2.4V41C19.4,37.9,23.6,32.9,28.5,32.8z"/>
	</g>
	<g>
		<path class="st0" d="M19.9,25.7c1.5,0,2.9-0.5,4.1-1.3c0.3-2.2,1.4-4.1,3.1-5.4c0-0.2,0-0.4,0-0.6c0-4-3.2-7.3-7.3-7.3
			s-7.3,3.2-7.3,7.3S15.9,25.7,19.9,25.7z"/>
	</g>
</g>
<g id="PersonR">
	<g>
		<path class="st0" d="M47.2,26.3h-3.1H41c-0.3,0-0.6,0-1,0.1c-0.3,2.9-2.1,5.3-4.5,6.4c5,0.1,9.2,5.1,9.1,8.2v4.8
			c4.4-0.1,9.5-1,11.4-2.4V34C56.1,31.1,52,26.2,47.2,26.3z"/>
	</g>
	<g>
		<path class="st0" d="M40,24.5c1.2,0.8,2.6,1.3,4.1,1.3c4,0,7.3-3.2,7.3-7.3s-3.2-7.3-7.3-7.3s-7.3,3.2-7.3,7.3c0,0.2,0,0.4,0,0.6
			C38.5,20.4,39.7,22.3,40,24.5z"/>
	</g>
</g>
<g id="PersonF">
	<g>
		<path class="st0" d="M35.1,33.3H32h-3.1c-4.8,0-8.9,4.8-8.8,7.8v9.3c2,1.4,7.4,2.4,11.9,2.4c4.5,0,9.9-1,11.9-2.4v-9.3
			C44,38.1,39.9,33.3,35.1,33.3z"/>
	</g>
	<g>
		<circle class="st0" cx="32" cy="25.5" r="7.3"/>
	</g>
</g>
</svg>
