<?xml version="1.0" encoding="utf-8"?>
<!-- Generator: Adobe Illustrator 21.0.0, SVG Export Plug-In . SVG Version: 6.00 Build 0)  -->
<svg version="1.1" xmlns="http://www.w3.org/2000/svg" xmlns:xlink="http://www.w3.org/1999/xlink" x="0px" y="0px"
	 viewBox="0 0 200 200" style="enable-background:new 0 0 200 200;" xml:space="preserve">
<style type="text/css">
	.st0{fill:#546E7A;stroke:#455A64;stroke-width:4;stroke-miterlimit:10;}
	.st1{fill:#546E7A;stroke:#455A64;stroke-width:2;stroke-miterlimit:10;}
	.st2{display:none;}
	.st3{display:inline;fill:none;stroke:#000000;stroke-miterlimit:10;}
	.st4{display:inline;}
	.st5{fill:#ECEFF1;stroke:#ECEFF1;stroke-width:2;stroke-miterlimit:10;}
	.st6{fill:#546E7A;}
</style>
<g id="Ebene_1">
	<circle class="st0" cx="100" cy="100" r="97"/>
	<polygon class="st1" points="141.4,1 199,58.6 199,141.4 141.4,199 58.6,199 1,141.4 1,58.6 58.6,1 	"/>
</g>
<g id="HIlfslinie" class="st2">
	<line class="st3" x1="0" y1="160" x2="200" y2="160"/>
	<polyline class="st3" points="40,160 80,60 100,100 160,50 	"/>
	<path class="st3" d="M71.7,64.2"/>
</g>
<g id="HIlfslinie_Kopie" class="st2">
	<polyline class="st3" points="180,60 100,100 80,60 	"/>
	<line class="st3" x1="140" y1="80" x2="108" y2="160"/>
</g>
<g id="HIlfslinie_Kopie_Kopie" class="st2">
	<polygon class="st4" points="41,161 79,64 78,62 39,161 	"/>
	<polygon class="st4" points="181,55 101,95 81,55 80,58 100,98 180,58 	"/>
	<polygon class="st4" points="111,161 143,81 181,61.5 180,60 141,80 109,161 	"/>
	<polygon class="st4" points="107,161 139,81 101,100 100.5,102 135.5,85 105,161 	"/>
	<polygon class="st4" points="43,161 81,66 100,104 99.5,106 81,70 45,161 	"/>
</g>
<g id="HIlfslinie_Kopie_Kopie_Kopie">
	<polygon class="st5" points="34.5,161 72.5,66 70.5,66 32.5,161 	"/>
	<polygon class="st5" points="173.5,54 93.5,94 73.5,54 73,56 93,96 173,56 	"/>
	<polygon class="st5" points="108,161 145,77.5 180,60 180.5,58 143.5,76.5 106,161 	"/>
	<polygon class="st5" points="101,161 137.5,78.5 94.5,100 94,102 134,82 99,161 	"/>
	<polygon class="st5" points="39.5,161 75,72 91,104 90.5,106 75,76 41.5,161 	"/>
	<rect x="31.3" y="144" class="st6" width="135.9" height="19.2"/>
</g>
</svg>
