<?xml version="1.0" encoding="utf-8"?>
<!-- Generator: Adobe Illustrator 21.0.0, SVG Export Plug-In . SVG Version: 6.00 Build 0)  -->
<svg version="1.1" id="Ebene_1" xmlns="http://www.w3.org/2000/svg" xmlns:xlink="http://www.w3.org/1999/xlink" x="0px" y="0px"
	 viewBox="0 0 64 64" style="enable-background:new 0 0 64 64;" xml:space="preserve">
<style type="text/css">
	.st0{display:none;}
	.st1{display:inline;fill:#FC0606;stroke:#37474E;stroke-miterlimit:10;}
	.st2{display:inline;}
	.st3{fill:#37474E;}
	.st4{display:inline;fill:none;stroke:#37474E;stroke-width:2;stroke-miterlimit:10;}
	.st5{display:inline;fill:none;stroke:#0000FF;stroke-width:2;stroke-miterlimit:10;}
	.st6{display:inline;fill:none;stroke:#FFFFFF;stroke-width:2;stroke-miterlimit:10;}
	.st7{display:inline;fill:none;stroke:#37474E;stroke-miterlimit:10;}
	.st8{display:inline;fill:#37474E;stroke:#FFFFFF;stroke-miterlimit:10;}
	.st9{display:none;fill:#37474E;}
	.st10{fill:none;stroke:#37474E;stroke-miterlimit:10;}
	.st11{display:inline;fill:none;stroke:#0000FF;stroke-width:0.25;stroke-miterlimit:10;}
</style>
<g id="Ebene_2" class="st0">
	<circle class="st1" cx="32" cy="32" r="32"/>
</g>
<g id="Ebene_1_1_" class="st0">
	<g id="PersonF" class="st2">
		<g>
			<path class="st3" d="M36.5,37.8H32h-4.5c-6.9,0-12.9,6.9-12.7,11.3v13.4c2.9,2,10.7,3.5,17.2,3.5s14.3-1.4,17.2-3.5V49.1
				C49.3,44.8,43.4,37.8,36.5,37.8z"/>
		</g>
		<g>
			<circle class="st3" cx="32" cy="26.5" r="10.5"/>
		</g>
	</g>
</g>
<g id="Ebene_4" class="st0">
	<ellipse class="st4" cx="32.3" cy="41.2" rx="11.6" ry="3.2"/>
	<path class="st4" d="M20.6,41.2v-9c0-1.4,2.6-3.9,11.6-3.9s11.6,2.4,11.6,3.9v9"/>
	<path class="st5" d="M20.6,30.8"/>
	<polyline class="st4" points="20.4,38.5 8,29.6 35.6,19.6 45.2,26.5 56,34.1 44,38.9 	"/>
	<path class="st4" d="M45.2,26.5c2.1-2.1,3.6,0.7,3.7,1.7c0.5,2.6,0.1,10.4,0.1,10.4l-1.3,2.6l1.3,2.6l1.3-2.6L49,38.6"/>
</g>
<g id="Ebene_4_Kopie_2" class="st0">
	<path class="st6" d="M42.9,26.2c2.1-2.1,4.5-1.2,5,1c0.7,2.6,0.1,10.4,0.1,10.4l-1.3,2.6l1.3,2.6l1.3-2.6L48,37.6"/>
	<path class="st7" d="M42.9,26.2c2.1-2.1,4.5-1.2,5,1c0.7,2.6,0.1,10.4,0.1,10.4l-1.3,2.6l1.3,2.6l1.3-2.6L48,37.6"/>
	<polyline class="st8" points="20.4,38.5 8,29.6 35.6,19.6 45.2,26.5 56,34.1 44,38.9 	"/>
	<path class="st8" d="M20.4,41.2v-9c0-1.4,2.6-3.9,11.6-3.9s11.6,2.4,11.6,3.9v9"/>
	<path class="st8" d="M32.3,38c-6.4,0-11.9,1.4-11.9,3.2s5.5,3.2,11.9,3.2s11.6-1.4,11.6-3.2S38.7,38,32.3,38z"/>
	<path class="st6" d="M46.3,25.2c0.8,0.3,1.4,1,1.6,2c0.7,2.6,0.1,10.4,0.1,10.4l-1.3,2.6l1.3,2.6l1.3-2.6L48,37.6"/>
</g>
<g id="Ebene_7">
	<path class="st9" d="M17.2,38.7L4,29.2l32.2-11.7l23.8,17l-13.2,5.4V32c0,0,0.1-4.9-14.7-5.1C17.3,26.6,17.2,32,17.2,32L17.2,38.7z
		"/>
	<path class="st3" d="M18.4,41.2V32c0,0,0.7-3.9,13.6-3.9s13.4,3.8,13.4,3.8l0.1,9.2c0,0-3.7-2.3-13.2-2.3S18.4,41.2,18.4,41.2z"/>
	<path class="st3" d="M18.3,43.2c0,0,1-3.3,13.8-3.3s13.7,3.2,13.7,3.2s-0.5,3.5-13.7,3.5S18.3,43.2,18.3,43.2z"/>
	<g>
		<path class="st3" d="M36.2,17.4L4,29.2l13.2,9.5V32c0,0,0.1-5.4,14.9-5.1C46.9,27.1,46.8,32,46.8,32v7.8l3.4-1.4l0.2-0.1
			c0.1-1.7,0.5-7.3,0.1-10.7"/>
		<path class="st3" d="M60,34.4l-7-5c0.1,2.7,0,6-0.2,7.9L60,34.4z"/>
	</g>
	<path class="st10" d="M45.3,24.9c2.6-2.6,5.5-1.5,6.1,1.2c0.9,3.2,0.1,12.7,0.1,12.7L50,42l1.6,3.2l1.6-3.2l-1.6-3.2"/>
</g>
<g id="Ebene_4_Kopie" class="st0">
	<ellipse class="st7" cx="32.3" cy="41.2" rx="11.6" ry="3.2"/>
	<path class="st7" d="M20.6,41.2v-9c0-1.4,2.6-3.9,11.6-3.9s11.6,2.4,11.6,3.9v9"/>
	<path class="st11" d="M20.6,30.8"/>
	<polyline class="st7" points="20.4,38.5 8,29.6 35.6,19.6 45.2,26.5 56,34.1 44,38.9 	"/>
	<path class="st7" d="M45.2,26.5c2.1-2.1,3.6,0.7,3.7,1.7c0.5,2.6,0.1,10.4,0.1,10.4l-1.3,2.6l1.3,2.6l1.3-2.6L49,38.6"/>
</g>
</svg>
